<svg xmlns="http://www.w3.org/2000/svg" viewBox="0 0 1180 492" width="1180" height="492" role="img" aria-label="Projetos publicos de jonhvinnykkj">
<rect width="1180" height="492" fill="#0d1117"/>
<text x="4" y="18" font-family="ui-monospace,SFMono-Regular,Menlo,Consolas,'Liberation Mono',monospace" font-size="12.5" font-weight="700" fill="#39d353" letter-spacing="2">PROJECTS.LIST</text>
<text x="146" y="18" font-family="ui-monospace,SFMono-Regular,Menlo,Consolas,'Liberation Mono',monospace" font-size="11" fill="#6e7681">./projetos.sh --todos</text>
<g transform="translate(2, 40)">
<rect width="578" height="132" rx="10" fill="#0f1620" stroke="#21372a"/>
<path d="M0 10a10 10 0 0 1 10-10h558a10 10 0 0 1 10 10v16H0z" fill="#131c26"/>
<line x1="0" y1="26" x2="578" y2="26" stroke="#21372a"/>
<circle cx="14" cy="13.5" r="2.5" fill="#39d353"/>
<text x="24" y="17.5" font-family="ui-monospace,SFMono-Regular,Menlo,Consolas,'Liberation Mono',monospace" font-size="10.5" fill="#6e7681">jonhvinnykkj/ipb-ciencia-de-dados</text>
<circle cx="564" cy="13.5" r="3" fill="#39d353" fill-opacity="0.55"/>
<rect x="14" y="38" width="40" height="40" rx="9" fill="#198CE7" fill-opacity="0.16" stroke="#198CE7" stroke-opacity="0.45"/>
<text x="34" y="65" font-family="ui-monospace,SFMono-Regular,Menlo,Consolas,'Liberation Mono',monospace" font-size="20" font-weight="700" fill="#198CE7" text-anchor="middle">I</text>
<text x="66" y="53" font-family="ui-monospace,SFMono-Regular,Menlo,Consolas,'Liberation Mono',monospace" font-size="15" font-weight="700" fill="#e6edf3">ipb-ciencia-de-dados<tspan fill="#39d353">_</tspan></text>
<text x="66" y="72" font-family="ui-monospace,SFMono-Regular,Menlo,Consolas,'Liberation Mono',monospace" font-size="10.5" fill="#8b949e">Trabalho de Ciência de Dados do Instituto</text>
<text x="66" y="86" font-family="ui-monospace,SFMono-Regular,Menlo,Consolas,'Liberation Mono',monospace" font-size="10.5" fill="#8b949e">Politécnico de Bragança — inferênci…</text>
<rect x="66" y="98" width="22.1" height="17" rx="8.5" fill="#16281d" stroke="#245c34"/>
<text x="77.05" y="110" font-family="ui-monospace,SFMono-Regular,Menlo,Consolas,'Liberation Mono',monospace" font-size="9" fill="#7ee295" text-anchor="middle">R</text>
<text x="66" y="126" font-family="ui-monospace,SFMono-Regular,Menlo,Consolas,'Liberation Mono',monospace" font-size="9.5" fill="#6e7681">★ 0  ·  atualizado há 7 dias</text>
<circle cx="402" cy="44.5" r="3.5" fill="#198CE7"/>
<text x="412" y="48" font-family="ui-monospace,SFMono-Regular,Menlo,Consolas,'Liberation Mono',monospace" font-size="9.5" fill="#8b949e">R 100%</text>
<circle cx="532" cy="66" r="22" fill="none" stroke="#1c2b22" stroke-width="6"/>
<circle cx="532" cy="66" r="22" fill="none" stroke="#198CE7" stroke-width="6" stroke-linecap="round" stroke-dasharray="138.2 138.2" transform="rotate(-90 532 66)"/>
<text x="532" y="70" font-family="ui-monospace,SFMono-Regular,Menlo,Consolas,'Liberation Mono',monospace" font-size="11" font-weight="700" fill="#e6edf3" text-anchor="middle">100%</text>
</g>
<g transform="translate(604, 40)">
<rect width="578" height="132" rx="10" fill="#0f1620" stroke="#21372a"/>
<path d="M0 10a10 10 0 0 1 10-10h558a10 10 0 0 1 10 10v16H0z" fill="#131c26"/>
<line x1="0" y1="26" x2="578" y2="26" stroke="#21372a"/>
<circle cx="14" cy="13.5" r="2.5" fill="#39d353"/>
<text x="24" y="17.5" font-family="ui-monospace,SFMono-Regular,Menlo,Consolas,'Liberation Mono',monospace" font-size="10.5" fill="#6e7681">jonhvinnykkj/game-alert</text>
<circle cx="564" cy="13.5" r="3" fill="#39d353" fill-opacity="0.55"/>
<rect x="14" y="38" width="40" height="40" rx="9" fill="#3572A5" fill-opacity="0.16" stroke="#3572A5" stroke-opacity="0.45"/>
<text x="34" y="65" font-family="ui-monospace,SFMono-Regular,Menlo,Consolas,'Liberation Mono',monospace" font-size="20" font-weight="700" fill="#3572A5" text-anchor="middle">G</text>
<text x="66" y="53" font-family="ui-monospace,SFMono-Regular,Menlo,Consolas,'Liberation Mono',monospace" font-size="15" font-weight="700" fill="#e6edf3">game-alert<tspan fill="#39d353">_</tspan></text>
<text x="66" y="72" font-family="ui-monospace,SFMono-Regular,Menlo,Consolas,'Liberation Mono',monospace" font-size="10.5" fill="#8b949e">Bot de Telegram que monitora promoções de</text>
<text x="66" y="86" font-family="ui-monospace,SFMono-Regular,Menlo,Consolas,'Liberation Mono',monospace" font-size="10.5" fill="#8b949e">jogos em PlayStation e Xbox — crawlers e…</text>
<rect x="66" y="98" width="52.6" height="17" rx="8.5" fill="#16281d" stroke="#245c34"/>
<text x="92.3" y="110" font-family="ui-monospace,SFMono-Regular,Menlo,Consolas,'Liberation Mono',monospace" font-size="9" fill="#7ee295" text-anchor="middle">Python</text>
<text x="66" y="126" font-family="ui-monospace,SFMono-Regular,Menlo,Consolas,'Liberation Mono',monospace" font-size="9.5" fill="#6e7681">★ 0  ·  atualizado há 2 anos</text>
<circle cx="402" cy="44.5" r="3.5" fill="#3572A5"/>
<text x="412" y="48" font-family="ui-monospace,SFMono-Regular,Menlo,Consolas,'Liberation Mono',monospace" font-size="9.5" fill="#8b949e">Python 100%</text>
<circle cx="532" cy="66" r="22" fill="none" stroke="#1c2b22" stroke-width="6"/>
<circle cx="532" cy="66" r="22" fill="none" stroke="#3572A5" stroke-width="6" stroke-linecap="round" stroke-dasharray="138.2 138.2" transform="rotate(-90 532 66)"/>
<text x="532" y="70" font-family="ui-monospace,SFMono-Regular,Menlo,Consolas,'Liberation Mono',monospace" font-size="11" font-weight="700" fill="#e6edf3" text-anchor="middle">100%</text>
</g>
<g transform="translate(2, 196)">
<rect width="578" height="132" rx="10" fill="#0f1620" stroke="#21372a"/>
<path d="M0 10a10 10 0 0 1 10-10h558a10 10 0 0 1 10 10v16H0z" fill="#131c26"/>
<line x1="0" y1="26" x2="578" y2="26" stroke="#21372a"/>
<circle cx="14" cy="13.5" r="2.5" fill="#39d353"/>
<text x="24" y="17.5" font-family="ui-monospace,SFMono-Regular,Menlo,Consolas,'Liberation Mono',monospace" font-size="10.5" fill="#6e7681">jonhvinnykkj/tuple</text>
<text x="564" y="17.5" font-family="ui-monospace,SFMono-Regular,Menlo,Consolas,'Liberation Mono',monospace" font-size="9" fill="#6e7681" text-anchor="end">arquivado</text>
<rect x="14" y="38" width="40" height="40" rx="9" fill="#e34c26" fill-opacity="0.16" stroke="#e34c26" stroke-opacity="0.45"/>
<text x="34" y="65" font-family="ui-monospace,SFMono-Regular,Menlo,Consolas,'Liberation Mono',monospace" font-size="20" font-weight="700" fill="#e34c26" text-anchor="middle">T</text>
<text x="66" y="53" font-family="ui-monospace,SFMono-Regular,Menlo,Consolas,'Liberation Mono',monospace" font-size="15" font-weight="700" fill="#e6edf3">tuple<tspan fill="#39d353">_</tspan></text>
<text x="66" y="72" font-family="ui-monospace,SFMono-Regular,Menlo,Consolas,'Liberation Mono',monospace" font-size="10.5" fill="#8b949e">Utilitário em Python empacotado com</text>
<text x="66" y="86" font-family="ui-monospace,SFMono-Regular,Menlo,Consolas,'Liberation Mono',monospace" font-size="10.5" fill="#8b949e">PyInstaller</text>
<rect x="66" y="98" width="40.4" height="17" rx="8.5" fill="#16281d" stroke="#245c34"/>
<text x="86.2" y="110" font-family="ui-monospace,SFMono-Regular,Menlo,Consolas,'Liberation Mono',monospace" font-size="9" fill="#7ee295" text-anchor="middle">HTML</text>
<rect x="112.4" y="98" width="34.3" height="17" rx="8.5" fill="#16281d" stroke="#245c34"/>
<text x="129.55" y="110" font-family="ui-monospace,SFMono-Regular,Menlo,Consolas,'Liberation Mono',monospace" font-size="9" fill="#7ee295" text-anchor="middle">TeX</text>
<rect x="152.7" y="98" width="52.6" height="17" rx="8.5" fill="#16281d" stroke="#245c34"/>
<text x="179" y="110" font-family="ui-monospace,SFMono-Regular,Menlo,Consolas,'Liberation Mono',monospace" font-size="9" fill="#7ee295" text-anchor="middle">Python</text>
<text x="66" y="126" font-family="ui-monospace,SFMono-Regular,Menlo,Consolas,'Liberation Mono',monospace" font-size="9.5" fill="#6e7681">★ 0  ·  atualizado há 2 anos</text>
<circle cx="402" cy="44.5" r="3.5" fill="#e34c26"/>
<text x="412" y="48" font-family="ui-monospace,SFMono-Regular,Menlo,Consolas,'Liberation Mono',monospace" font-size="9.5" fill="#8b949e">HTML 62%</text>
<circle cx="402" cy="59.5" r="3.5" fill="#3D6117"/>
<text x="412" y="63" font-family="ui-monospace,SFMono-Regular,Menlo,Consolas,'Liberation Mono',monospace" font-size="9.5" fill="#8b949e">TeX 37%</text>
<circle cx="402" cy="74.5" r="3.5" fill="#3572A5"/>
<text x="412" y="78" font-family="ui-monospace,SFMono-Regular,Menlo,Consolas,'Liberation Mono',monospace" font-size="9.5" fill="#8b949e">Python 1%</text>
<circle cx="532" cy="66" r="22" fill="none" stroke="#1c2b22" stroke-width="6"/>
<circle cx="532" cy="66" r="22" fill="none" stroke="#e34c26" stroke-width="6" stroke-linecap="round" stroke-dasharray="85.7 138.2" transform="rotate(-90 532 66)"/>
<text x="532" y="70" font-family="ui-monospace,SFMono-Regular,Menlo,Consolas,'Liberation Mono',monospace" font-size="11" font-weight="700" fill="#e6edf3" text-anchor="middle">62%</text>
</g>
<g transform="translate(604, 196)">
<rect width="578" height="132" rx="10" fill="#0f1620" stroke="#21372a"/>
<path d="M0 10a10 10 0 0 1 10-10h558a10 10 0 0 1 10 10v16H0z" fill="#131c26"/>
<line x1="0" y1="26" x2="578" y2="26" stroke="#21372a"/>
<circle cx="14" cy="13.5" r="2.5" fill="#39d353"/>
<text x="24" y="17.5" font-family="ui-monospace,SFMono-Regular,Menlo,Consolas,'Liberation Mono',monospace" font-size="10.5" fill="#6e7681">jonhvinnykkj/market-pi</text>
<text x="564" y="17.5" font-family="ui-monospace,SFMono-Regular,Menlo,Consolas,'Liberation Mono',monospace" font-size="9" fill="#6e7681" text-anchor="end">arquivado</text>
<rect x="14" y="38" width="40" height="40" rx="9" fill="#3178c6" fill-opacity="0.16" stroke="#3178c6" stroke-opacity="0.45"/>
<text x="34" y="65" font-family="ui-monospace,SFMono-Regular,Menlo,Consolas,'Liberation Mono',monospace" font-size="20" font-weight="700" fill="#3178c6" text-anchor="middle">M</text>
<text x="66" y="53" font-family="ui-monospace,SFMono-Regular,Menlo,Consolas,'Liberation Mono',monospace" font-size="15" font-weight="700" fill="#e6edf3">market-pi<tspan fill="#39d353">_</tspan></text>
<text x="66" y="72" font-family="ui-monospace,SFMono-Regular,Menlo,Consolas,'Liberation Mono',monospace" font-size="10.5" fill="#8b949e">Marketplace em Vite + React + shadcn/ui com</text>
<text x="66" y="86" font-family="ui-monospace,SFMono-Regular,Menlo,Consolas,'Liberation Mono',monospace" font-size="10.5" fill="#8b949e">API própria e PostgreSQL (Neon)</text>
<rect x="66" y="98" width="77.0" height="17" rx="8.5" fill="#16281d" stroke="#245c34"/>
<text x="104.5" y="110" font-family="ui-monospace,SFMono-Regular,Menlo,Consolas,'Liberation Mono',monospace" font-size="9" fill="#7ee295" text-anchor="middle">TypeScript</text>
<rect x="149" y="98" width="77.0" height="17" rx="8.5" fill="#16281d" stroke="#245c34"/>
<text x="187.5" y="110" font-family="ui-monospace,SFMono-Regular,Menlo,Consolas,'Liberation Mono',monospace" font-size="9" fill="#7ee295" text-anchor="middle">JavaScript</text>
<rect x="232" y="98" width="58.7" height="17" rx="8.5" fill="#16281d" stroke="#245c34"/>
<text x="261.35" y="110" font-family="ui-monospace,SFMono-Regular,Menlo,Consolas,'Liberation Mono',monospace" font-size="9" fill="#7ee295" text-anchor="middle">PLpgSQL</text>
<text x="66" y="126" font-family="ui-monospace,SFMono-Regular,Menlo,Consolas,'Liberation Mono',monospace" font-size="9.5" fill="#6e7681">★ 0  ·  atualizado há 9 meses</text>
<circle cx="402" cy="44.5" r="3.5" fill="#3178c6"/>
<text x="412" y="48" font-family="ui-monospace,SFMono-Regular,Menlo,Consolas,'Liberation Mono',monospace" font-size="9.5" fill="#8b949e">TypeScript 92%</text>
<circle cx="402" cy="59.5" r="3.5" fill="#f1e05a"/>
<text x="412" y="63" font-family="ui-monospace,SFMono-Regular,Menlo,Consolas,'Liberation Mono',monospace" font-size="9.5" fill="#8b949e">JavaScript 4%</text>
<circle cx="402" cy="74.5" r="3.5" fill="#336790"/>
<text x="412" y="78" font-family="ui-monospace,SFMono-Regular,Menlo,Consolas,'Liberation Mono',monospace" font-size="9.5" fill="#8b949e">PLpgSQL 3%</text>
<circle cx="532" cy="66" r="22" fill="none" stroke="#1c2b22" stroke-width="6"/>
<circle cx="532" cy="66" r="22" fill="none" stroke="#3178c6" stroke-width="6" stroke-linecap="round" stroke-dasharray="127.2 138.2" transform="rotate(-90 532 66)"/>
<text x="532" y="70" font-family="ui-monospace,SFMono-Regular,Menlo,Consolas,'Liberation Mono',monospace" font-size="11" font-weight="700" fill="#e6edf3" text-anchor="middle">92%</text>
</g>
<g transform="translate(2, 352)">
<rect width="578" height="132" rx="10" fill="#0f1620" stroke="#21372a"/>
<path d="M0 10a10 10 0 0 1 10-10h558a10 10 0 0 1 10 10v16H0z" fill="#131c26"/>
<line x1="0" y1="26" x2="578" y2="26" stroke="#21372a"/>
<circle cx="14" cy="13.5" r="2.5" fill="#39d353"/>
<text x="24" y="17.5" font-family="ui-monospace,SFMono-Regular,Menlo,Consolas,'Liberation Mono',monospace" font-size="10.5" fill="#6e7681">jonhvinnykkj/fatec-aulas</text>
<text x="564" y="17.5" font-family="ui-monospace,SFMono-Regular,Menlo,Consolas,'Liberation Mono',monospace" font-size="9" fill="#6e7681" text-anchor="end">arquivado</text>
<rect x="14" y="38" width="40" height="40" rx="9" fill="#3572A5" fill-opacity="0.16" stroke="#3572A5" stroke-opacity="0.45"/>
<text x="34" y="65" font-family="ui-monospace,SFMono-Regular,Menlo,Consolas,'Liberation Mono',monospace" font-size="20" font-weight="700" fill="#3572A5" text-anchor="middle">F</text>
<text x="66" y="53" font-family="ui-monospace,SFMono-Regular,Menlo,Consolas,'Liberation Mono',monospace" font-size="15" font-weight="700" fill="#e6edf3">fatec-aulas<tspan fill="#39d353">_</tspan></text>
<text x="66" y="72" font-family="ui-monospace,SFMono-Regular,Menlo,Consolas,'Liberation Mono',monospace" font-size="10.5" fill="#8b949e">Exercícios e anotações das aulas da FATEC —</text>
<text x="66" y="86" font-family="ui-monospace,SFMono-Regular,Menlo,Consolas,'Liberation Mono',monospace" font-size="10.5" fill="#8b949e">Python</text>
<rect x="66" y="98" width="52.6" height="17" rx="8.5" fill="#16281d" stroke="#245c34"/>
<text x="92.3" y="110" font-family="ui-monospace,SFMono-Regular,Menlo,Consolas,'Liberation Mono',monospace" font-size="9" fill="#7ee295" text-anchor="middle">Python</text>
<rect x="124.6" y="98" width="77.0" height="17" rx="8.5" fill="#16281d" stroke="#245c34"/>
<text x="163.1" y="110" font-family="ui-monospace,SFMono-Regular,Menlo,Consolas,'Liberation Mono',monospace" font-size="9" fill="#7ee295" text-anchor="middle">JavaScript</text>
<text x="66" y="126" font-family="ui-monospace,SFMono-Regular,Menlo,Consolas,'Liberation Mono',monospace" font-size="9.5" fill="#6e7681">★ 0  ·  atualizado há 2 anos</text>
<circle cx="402" cy="44.5" r="3.5" fill="#3572A5"/>
<text x="412" y="48" font-family="ui-monospace,SFMono-Regular,Menlo,Consolas,'Liberation Mono',monospace" font-size="9.5" fill="#8b949e">Python 68%</text>
<circle cx="402" cy="59.5" r="3.5" fill="#f1e05a"/>
<text x="412" y="63" font-family="ui-monospace,SFMono-Regular,Menlo,Consolas,'Liberation Mono',monospace" font-size="9.5" fill="#8b949e">JavaScript 32%</text>
<circle cx="532" cy="66" r="22" fill="none" stroke="#1c2b22" stroke-width="6"/>
<circle cx="532" cy="66" r="22" fill="none" stroke="#3572A5" stroke-width="6" stroke-linecap="round" stroke-dasharray="94.0 138.2" transform="rotate(-90 532 66)"/>
<text x="532" y="70" font-family="ui-monospace,SFMono-Regular,Menlo,Consolas,'Liberation Mono',monospace" font-size="11" font-weight="700" fill="#e6edf3" text-anchor="middle">68%</text>
</g>
<g transform="translate(604, 352)">
<rect width="578" height="132" rx="10" fill="#0f1620" stroke="#21372a"/>
<path d="M0 10a10 10 0 0 1 10-10h558a10 10 0 0 1 10 10v16H0z" fill="#131c26"/>
<line x1="0" y1="26" x2="578" y2="26" stroke="#21372a"/>
<circle cx="14" cy="13.5" r="2.5" fill="#39d353"/>
<text x="24" y="17.5" font-family="ui-monospace,SFMono-Regular,Menlo,Consolas,'Liberation Mono',monospace" font-size="10.5" fill="#6e7681">jonhvinnykkj/fatec-elevador-system</text>
<text x="564" y="17.5" font-family="ui-monospace,SFMono-Regular,Menlo,Consolas,'Liberation Mono',monospace" font-size="9" fill="#6e7681" text-anchor="end">arquivado</text>
<rect x="14" y="38" width="40" height="40" rx="9" fill="#b07219" fill-opacity="0.16" stroke="#b07219" stroke-opacity="0.45"/>
<text x="34" y="65" font-family="ui-monospace,SFMono-Regular,Menlo,Consolas,'Liberation Mono',monospace" font-size="20" font-weight="700" fill="#b07219" text-anchor="middle">F</text>
<text x="66" y="53" font-family="ui-monospace,SFMono-Regular,Menlo,Consolas,'Liberation Mono',monospace" font-size="15" font-weight="700" fill="#e6edf3">fatec-elevador-system<tspan fill="#39d353">_</tspan></text>
<text x="66" y="72" font-family="ui-monospace,SFMono-Regular,Menlo,Consolas,'Liberation Mono',monospace" font-size="10.5" fill="#8b949e">Exercício acadêmico: simulação de sistema de</text>
<text x="66" y="86" font-family="ui-monospace,SFMono-Regular,Menlo,Consolas,'Liberation Mono',monospace" font-size="10.5" fill="#8b949e">elevador em Java</text>
<rect x="66" y="98" width="40.4" height="17" rx="8.5" fill="#16281d" stroke="#245c34"/>
<text x="86.2" y="110" font-family="ui-monospace,SFMono-Regular,Menlo,Consolas,'Liberation Mono',monospace" font-size="9" fill="#7ee295" text-anchor="middle">Java</text>
<text x="66" y="126" font-family="ui-monospace,SFMono-Regular,Menlo,Consolas,'Liberation Mono',monospace" font-size="9.5" fill="#6e7681">★ 0  ·  atualizado há 1 ano</text>
<circle cx="402" cy="44.5" r="3.5" fill="#b07219"/>
<text x="412" y="48" font-family="ui-monospace,SFMono-Regular,Menlo,Consolas,'Liberation Mono',monospace" font-size="9.5" fill="#8b949e">Java 100%</text>
<circle cx="532" cy="66" r="22" fill="none" stroke="#1c2b22" stroke-width="6"/>
<circle cx="532" cy="66" r="22" fill="none" stroke="#b07219" stroke-width="6" stroke-linecap="round" stroke-dasharray="138.2 138.2" transform="rotate(-90 532 66)"/>
<text x="532" y="70" font-family="ui-monospace,SFMono-Regular,Menlo,Consolas,'Liberation Mono',monospace" font-size="11" font-weight="700" fill="#e6edf3" text-anchor="middle">100%</text>
</g>
</svg>
